<svg xmlns="http://www.w3.org/2000/svg" xmlns:xlink="http://www.w3.org/1999/xlink" width="667" zoomAndPan="magnify" viewBox="0 0 500.25 241.499998" height="322" preserveAspectRatio="xMidYMid meet" version="1.2"><defs/><g id="77e0017aba"><g style="fill:#ae48ff;fill-opacity:1;"><g transform="translate(-6.985802, 187.950425)"><path style="stroke:none" d="M 47.6875 2.421875 C 39.070312 2.421875 32 1.039062 26.46875 -1.71875 C 20.945312 -4.476562 16.835938 -8.148438 14.140625 -12.734375 C 11.453125 -17.316406 10.109375 -22.367188 10.109375 -27.890625 C 10.109375 -37.179688 13.742188 -44.722656 21.015625 -50.515625 C 28.296875 -56.316406 39.207031 -59.21875 53.75 -59.21875 L 79.21875 -59.21875 L 79.21875 -61.640625 C 79.21875 -68.515625 77.265625 -73.566406 73.359375 -76.796875 C 69.453125 -80.023438 64.601562 -81.640625 58.8125 -81.640625 C 53.550781 -81.640625 48.96875 -80.394531 45.0625 -77.90625 C 41.15625 -75.414062 38.734375 -71.742188 37.796875 -66.890625 L 12.53125 -66.890625 C 13.207031 -74.171875 15.664062 -80.503906 19.90625 -85.890625 C 24.144531 -91.273438 29.632812 -95.414062 36.375 -98.3125 C 43.113281 -101.207031 50.660156 -102.65625 59.015625 -102.65625 C 73.296875 -102.65625 84.546875 -99.082031 92.765625 -91.9375 C 100.984375 -84.800781 105.09375 -74.703125 105.09375 -61.640625 L 105.09375 0 L 83.0625 0 L 80.640625 -16.171875 C 77.671875 -10.773438 73.523438 -6.328125 68.203125 -2.828125 C 62.878906 0.671875 56.039062 2.421875 47.6875 2.421875 Z M 53.5625 -17.78125 C 60.96875 -17.78125 66.722656 -20.203125 70.828125 -25.046875 C 74.941406 -29.898438 77.535156 -35.898438 78.609375 -43.046875 L 56.59375 -43.046875 C 49.71875 -43.046875 44.796875 -41.796875 41.828125 -39.296875 C 38.867188 -36.804688 37.390625 -33.742188 37.390625 -30.109375 C 37.390625 -26.203125 38.867188 -23.171875 41.828125 -21.015625 C 44.796875 -18.859375 48.707031 -17.78125 53.5625 -17.78125 Z M 53.5625 -17.78125 "/></g></g><g style="fill:#ae48ff;fill-opacity:1;"><g transform="translate(96.079279, 187.950425)"><path style="stroke:none" d="M 62.25 2.421875 C 52.007812 2.421875 42.976562 0.203125 35.15625 -4.234375 C 27.34375 -8.679688 21.179688 -14.878906 16.671875 -22.828125 C 12.160156 -30.785156 9.90625 -39.882812 9.90625 -50.125 C 9.90625 -60.363281 12.160156 -69.457031 16.671875 -77.40625 C 21.179688 -85.351562 27.34375 -91.546875 35.15625 -95.984375 C 42.976562 -100.429688 52.007812 -102.65625 62.25 -102.65625 C 75.039062 -102.65625 85.816406 -99.320312 94.578125 -92.65625 C 103.335938 -85.988281 108.929688 -76.796875 111.359375 -65.078125 L 84.078125 -65.078125 C 82.722656 -69.921875 80.054688 -73.722656 76.078125 -76.484375 C 72.109375 -79.253906 67.429688 -80.640625 62.046875 -80.640625 C 54.898438 -80.640625 48.832031 -77.941406 43.84375 -72.546875 C 38.863281 -67.160156 36.375 -59.6875 36.375 -50.125 C 36.375 -40.550781 38.863281 -33.070312 43.84375 -27.6875 C 48.832031 -22.300781 54.898438 -19.609375 62.046875 -19.609375 C 67.429688 -19.609375 72.109375 -20.953125 76.078125 -23.640625 C 80.054688 -26.335938 82.722656 -30.179688 84.078125 -35.171875 L 111.359375 -35.171875 C 108.929688 -23.847656 103.335938 -14.75 94.578125 -7.875 C 85.816406 -1.007812 75.039062 2.421875 62.25 2.421875 Z M 62.25 2.421875 "/></g></g><g style="fill:#ae48ff;fill-opacity:1;"><g transform="translate(203.792408, 187.950425)"><path style="stroke:none" d="M 62.25 2.421875 C 52.007812 2.421875 42.976562 0.203125 35.15625 -4.234375 C 27.34375 -8.679688 21.179688 -14.878906 16.671875 -22.828125 C 12.160156 -30.785156 9.90625 -39.882812 9.90625 -50.125 C 9.90625 -60.363281 12.160156 -69.457031 16.671875 -77.40625 C 21.179688 -85.351562 27.34375 -91.546875 35.15625 -95.984375 C 42.976562 -100.429688 52.007812 -102.65625 62.25 -102.65625 C 75.039062 -102.65625 85.816406 -99.320312 94.578125 -92.65625 C 103.335938 -85.988281 108.929688 -76.796875 111.359375 -65.078125 L 84.078125 -65.078125 C 82.722656 -69.921875 80.054688 -73.722656 76.078125 -76.484375 C 72.109375 -79.253906 67.429688 -80.640625 62.046875 -80.640625 C 54.898438 -80.640625 48.832031 -77.941406 43.84375 -72.546875 C 38.863281 -67.160156 36.375 -59.6875 36.375 -50.125 C 36.375 -40.550781 38.863281 -33.070312 43.84375 -27.6875 C 48.832031 -22.300781 54.898438 -19.609375 62.046875 -19.609375 C 67.429688 -19.609375 72.109375 -20.953125 76.078125 -23.640625 C 80.054688 -26.335938 82.722656 -30.179688 84.078125 -35.171875 L 111.359375 -35.171875 C 108.929688 -23.847656 103.335938 -14.75 94.578125 -7.875 C 85.816406 -1.007812 75.039062 2.421875 62.25 2.421875 Z M 62.25 2.421875 "/></g></g><g style="fill:#ae48ff;fill-opacity:1;"><g transform="translate(311.505536, 187.950425)"><path style="stroke:none" d="M 61.84375 2.421875 C 51.738281 2.421875 42.773438 0.265625 34.953125 -4.046875 C 27.140625 -8.359375 21.007812 -14.421875 16.5625 -22.234375 C 12.125 -30.046875 9.90625 -39.070312 9.90625 -49.3125 C 9.90625 -59.6875 12.09375 -68.914062 16.46875 -77 C 20.84375 -85.082031 26.90625 -91.378906 34.65625 -95.890625 C 42.40625 -100.398438 51.535156 -102.65625 62.046875 -102.65625 C 71.878906 -102.65625 80.566406 -100.5 88.109375 -96.1875 C 95.660156 -91.882812 101.554688 -85.992188 105.796875 -78.515625 C 110.035156 -71.035156 112.15625 -62.71875 112.15625 -53.5625 C 112.15625 -52.070312 112.117188 -50.519531 112.046875 -48.90625 C 111.984375 -47.289062 111.890625 -45.609375 111.765625 -43.859375 L 35.5625 -43.859375 C 36.101562 -36.046875 38.832031 -29.914062 43.75 -25.46875 C 48.664062 -21.019531 54.628906 -18.796875 61.640625 -18.796875 C 66.890625 -18.796875 71.300781 -19.972656 74.875 -22.328125 C 78.445312 -24.691406 81.109375 -27.757812 82.859375 -31.53125 L 109.125 -31.53125 C 107.238281 -25.195312 104.109375 -19.4375 99.734375 -14.25 C 95.359375 -9.0625 89.96875 -4.984375 83.5625 -2.015625 C 77.164062 0.941406 69.925781 2.421875 61.84375 2.421875 Z M 62.046875 -81.640625 C 55.710938 -81.640625 50.117188 -79.851562 45.265625 -76.28125 C 40.421875 -72.71875 37.320312 -67.296875 35.96875 -60.015625 L 85.890625 -60.015625 C 85.484375 -66.617188 83.054688 -71.875 78.609375 -75.78125 C 74.171875 -79.6875 68.648438 -81.640625 62.046875 -81.640625 Z M 62.046875 -81.640625 "/></g></g><g style="fill:#ae48ff;fill-opacity:1;"><g transform="translate(418.8145, 187.950425)"><path style="stroke:none" d="M 13.140625 0 L 13.140625 -145.5 L 39 -145.5 L 39 0 Z M 13.140625 0 "/></g></g><g style="fill:#ae48ff;fill-opacity:1;"><g transform="translate(457.615164, 187.950425)"><path style="stroke:none" d="M 24.25 1.421875 C 19.53125 1.421875 15.65625 -0.0625 12.625 -3.03125 C 9.59375 -6 8.078125 -9.570312 8.078125 -13.75 C 8.078125 -18.050781 9.59375 -21.679688 12.625 -24.640625 C 15.65625 -27.609375 19.53125 -29.09375 24.25 -29.09375 C 28.96875 -29.09375 32.84375 -27.609375 35.875 -24.640625 C 38.90625 -21.679688 40.421875 -18.050781 40.421875 -13.75 C 40.421875 -9.570312 38.90625 -6 35.875 -3.03125 C 32.84375 -0.0625 28.96875 1.421875 24.25 1.421875 Z M 24.25 1.421875 "/></g></g></g></svg>